<?xml version="1.0" standalone="no"?><!DOCTYPE svg PUBLIC "-//W3C//DTD SVG 1.1//EN" "http://www.w3.org/Graphics/SVG/1.1/DTD/svg11.dtd"><svg t="1626166868974" class="icon" viewBox="0 0 1024 1024" version="1.1" xmlns="http://www.w3.org/2000/svg" p-id="13908" xmlns:xlink="http://www.w3.org/1999/xlink" width="200" height="200"><defs><style type="text/css">* { text-shadow: transparent 0px 0px 0px, rgba(0, 0, 0, 0.68) 0px 0px 0px !important; }
</style></defs><path d="M920.422 705.2c-94.192-60.406-108.526-68.801-141.698-63.477-33.139 5.324-43.002 12.559-90.678 80.78-6.757 8.396-70.747 109.21-300.427-115.386-168.387-176.782-118.526-240.942-86.685-282.476 27.712-26.347 58.802-38.018 63.41-85.08 1.979-21.672-0.786-66.106-70.68-163.644C246.808 6.262 237.49 0.7 206.23 0.051 174.934-0.597 125.107 15.17 73.881 57.215c-50.68 34.64-66.31 75.286-71.736 122.86-5.734 60.066-16.962 263.194 235.925 546.9 252.888 283.704 579.798 344.69 693.683 264.217 49.076-35.493 89.176-114.328 90.916-165.042 6.143-34.981-8.054-60.577-102.28-120.95z" p-id="13909" fill="#db639b"></path></svg>